<?xml version="1.0" standalone="no"?><!DOCTYPE svg PUBLIC "-//W3C//DTD SVG 1.1//EN" "http://www.w3.org/Graphics/SVG/1.1/DTD/svg11.dtd"><svg t="1630752818592" class="icon" viewBox="0 0 1024 1024" version="1.1" xmlns="http://www.w3.org/2000/svg" p-id="2195" xmlns:xlink="http://www.w3.org/1999/xlink" width="32" height="32"><defs><style type="text/css"></style></defs><path d="M632.4 843.8H356.5l-33.9-276.2c-2.4-19.7 13-37.1 32.8-37.1h278.1c19.9 0 35.2 17.4 32.8 37.1l-33.9 276.2z" fill="#FFD45A" p-id="2196"></path><path d="M213.8 277H775c10.7 0 19.4-8.7 19.4-19.4s-8.7-19.4-19.4-19.4H513.8v-46.9c0-10.7-8.7-19.4-19.4-19.4s-19.4 8.7-19.4 19.4v46.9H213.8c-10.7 0-19.4 8.7-19.4 19.4s8.7 19.4 19.4 19.4zM775.1 332.7H213.8c-5.6 0-10.8 2.4-14.5 6.5-3.7 4.1-5.4 9.7-4.7 15.2l52.9 430.2c6 48.5 47.3 85.1 96.2 85.1h301.6c48.9 0 90.2-36.6 96.2-85.1l52.9-430.2c0.7-5.5-1-11.1-4.7-15.2-3.8-4.2-9.1-6.5-14.6-6.5zM703 779.9c-3.6 29.1-28.4 51.1-57.7 51.1H513.8V584.9c0-10.7-8.7-19.4-19.4-19.4s-19.4 8.7-19.4 19.4V831H343.7c-29.3 0-54.1-21.9-57.7-51.1l-50.2-408.5h517.4L703 779.9z" fill="#cdcdcd" p-id="2197" data-spm-anchor-id="a313x.7781069.0.i0" class="selected"></path></svg>