<?xml version="1.0" standalone="no"?><!DOCTYPE svg PUBLIC "-//W3C//DTD SVG 1.1//EN" "http://www.w3.org/Graphics/SVG/1.1/DTD/svg11.dtd"><svg t="1631168987863" class="icon" viewBox="0 0 1024 1024" version="1.1" xmlns="http://www.w3.org/2000/svg" p-id="18904" xmlns:xlink="http://www.w3.org/1999/xlink" width="128" height="128"><defs><style type="text/css"></style></defs><path d="M887.466667 0a136.533333 136.533333 0 0 1 136.533333 136.533333v750.933334a136.533333 136.533333 0 0 1-136.533333 136.533333H136.533333a136.533333 136.533333 0 0 1-136.533333-136.533333V136.533333a136.533333 136.533333 0 0 1 136.533333-136.533333h750.933334z m0 59.733333H136.533333a76.8 76.8 0 0 0-76.714666 73.181867L59.733333 136.533333v750.933334a76.8 76.8 0 0 0 73.181867 76.714666L136.533333 964.266667h750.933334a76.8 76.8 0 0 0 76.714666-73.181867L964.266667 887.466667V136.533333a76.8 76.8 0 0 0-73.181867-76.714666L887.466667 59.733333z" p-id="18905" fill="#cdcdcd"></path><path d="M612.352 196.266667c22.698667 0 43.9808 9.3184 62.958933 27.477333 21.3504 20.48 32.546133 42.8544 32.938667 66.338133 0.375467 20.8896-7.850667 41.3696-24.2688 60.893867l-3.413333 3.8912-4.5568 4.846933-7.850667 7.901867-139.434667 138.513067-169.472 167.799466a24.712533 24.712533 0 0 1-7.9872 5.290667l-2.269866 0.802133-24.354134 7.6288-113.117866 36.352c-8.8064 2.833067-18.432 0.512-25.002667-6.007466a24.9856 24.9856 0 0 1-6.826667-22.5792l0.6144-2.440534 25.463467-84.1216 15.2064-51.592533 1.194667-4.266667c0.785067-2.8672 2.116267-5.393067 4.7104-8.874666l1.706666-2.218667L544.512 225.792c18.653867-18.500267 42.205867-29.508267 67.822933-29.508267zM266.752 587.485867l-2.850133-1.143467-24.558934 77.653333 77.585067-25.941333-0.221867-0.580267a89.053867 89.053867 0 0 0-12.1856-20.565333l-3.106133-3.703467-3.584-3.84c-9.898667-9.984-20.445867-17.288533-31.061333-21.879466z m281.156267-294.997334L294.656 545.962667l0.785067 0.4096c9.898667 5.188267 19.182933 11.485867 27.716266 18.773333l5.0176 4.471467 4.727467 4.625066a139.8272 139.8272 0 0 1 21.333333 27.818667l2.5088 4.5056 123.716267-122.453333 128.597333-127.6416-1.501866-4.949334a89.275733 89.275733 0 0 0-14.677334-27.016533l-3.345066-3.9424-3.2256-3.4304c-10.427733-10.5472-21.504-18.0736-32.529067-22.562133l-4.130133-1.536-1.706667-0.546134z m64.4096-46.506666c-8.789333 0-17.698133 3.310933-25.668267 8.994133l-0.512 0.375467 5.290667 3.0208c7.2704 4.386133 14.1824 9.386667 20.650666 14.9504l4.7616 4.266666 4.5056 4.437334c9.0112 9.130667 16.725333 19.456 22.971734 30.702933l2.679466 5.137067 2.082134-2.594134c5.2224-6.929067 8.328533-13.448533 9.335466-19.421866l0.3072-2.5088 0.0512-2.3552c-0.170667-9.506133-6.024533-20.0704-17.646933-31.232-9.591467-9.233067-19.2512-13.7728-28.808533-13.7728z" p-id="18906" fill="#cdcdcd"></path><path d="M256 768m29.013333 0l436.906667 0q29.013333 0 29.013333 29.013333l0 0q0 29.013333-29.013333 29.013334l-436.906667 0q-29.013333 0-29.013333-29.013334l0 0q0-29.013333 29.013333-29.013333Z" p-id="18907" fill="#cdcdcd"></path></svg>